<?xml version="1.0" standalone="no"?>
<!DOCTYPE svg PUBLIC "-//W3C//DTD SVG 20010904//EN"
 "http://www.w3.org/TR/2001/REC-SVG-20010904/DTD/svg10.dtd">
<svg version="1.0" xmlns="http://www.w3.org/2000/svg"
 width="256.000000pt" height="256.000000pt" viewBox="0 0 256.000000 256.000000"
 preserveAspectRatio="xMidYMid meet">

<g transform="translate(0.000000,256.000000) scale(0.100000,-0.100000)"
fill="#000000" stroke="none">
<path d="M630 2394 c-110 -18 -154 -30 -212 -61 -118 -62 -208 -181 -239 -318
-20 -88 -20 -1395 0 -1475 45 -180 171 -307 352 -357 58 -16 125 -18 744 -18
750 0 748 0 867 62 118 62 208 181 239 318 20 88 20 1395 0 1475 -45 177 -168
304 -347 357 -53 15 -125 17 -719 19 -363 1 -671 0 -685 -2z m736 -459 c46
-23 117 -89 224 -210 19 -22 64 -60 98 -84 96 -68 224 -208 263 -287 29 -59
34 -79 37 -164 5 -117 -12 -191 -68 -307 l-41 -83 -77 78 c-111 112 -170 134
-250 93 -37 -19 -142 -122 -142 -139 0 -5 12 -12 28 -16 16 -3 38 -21 55 -46
53 -78 126 -99 201 -59 26 14 47 18 68 14 28 -7 28 -8 13 -25 -47 -52 -206
-89 -388 -90 -375 -1 -607 171 -607 450 0 39 -3 70 -6 70 -4 0 -23 -14 -42
-32 l-36 -31 -13 29 c-19 46 -16 55 28 72 l42 16 -83 23 c-45 12 -85 24 -87
27 -6 6 16 77 27 90 5 4 42 -11 84 -34 42 -23 76 -39 76 -35 0 3 -19 26 -42
51 l-42 46 34 29 c19 16 37 29 40 29 3 0 17 -26 31 -57 l25 -58 34 65 c44 82
162 206 255 269 l71 47 -74 0 c-66 -1 -76 2 -93 23 -45 56 -6 115 84 126 30 4
79 4 109 0 52 -7 53 -7 36 12 -26 28 -22 61 11 94 36 35 53 36 117 4z"/>
<path d="M1272 1295 l-32 -65 22 -9 c13 -5 70 -28 128 -51 58 -23 135 -53 172
-66 l66 -24 153 50 c85 28 155 53 157 55 3 2 -10 34 -26 70 l-31 66 -120 -61
c-67 -33 -126 -60 -132 -60 -6 0 -78 36 -160 80 -82 44 -153 80 -157 80 -4 0
-22 -29 -40 -65z"/>
<path d="M1336 1113 c-13 -13 -5 -72 13 -94 24 -30 83 -32 112 -3 l20 21 -63
38 c-79 48 -74 46 -82 38z"/>
<path d="M1790 1084 c-30 -20 -57 -39 -60 -41 -10 -9 42 -43 65 -43 49 0 90
66 63 103 -12 16 -17 15 -68 -19z"/>
</g>
</svg>
